<mxfile host="app.diagrams.net" modified="2024-03-01T17:06:05.226Z" agent="Mozilla/5.0 (Macintosh; Intel Mac OS X 10.15; rv:123.0) Gecko/20100101 Firefox/123.0" etag="6tRpdPUihoiWMnjVc0ee" version="23.1.4" type="device">
  <diagram name="Page-1" id="b1Yz4LJFlwyoJpQOb2CD">
    <mxGraphModel dx="2202" dy="997" grid="1" gridSize="10" guides="1" tooltips="1" connect="1" arrows="1" fold="1" page="0" pageScale="1" pageWidth="850" pageHeight="1100" math="0" shadow="0">
      <root>
        <mxCell id="0" />
        <mxCell id="1" parent="0" />
        <mxCell id="KNKUc1UJHXEjSF4-eD5e-16" style="edgeStyle=orthogonalEdgeStyle;rounded=0;orthogonalLoop=1;jettySize=auto;html=1;exitX=1;exitY=0.5;exitDx=0;exitDy=0;entryX=0;entryY=0.5;entryDx=0;entryDy=0;movable=1;resizable=1;rotatable=1;deletable=1;editable=1;locked=0;connectable=1;" parent="1" source="KNKUc1UJHXEjSF4-eD5e-1" target="KNKUc1UJHXEjSF4-eD5e-3" edge="1">
          <mxGeometry relative="1" as="geometry" />
        </mxCell>
        <mxCell id="KNKUc1UJHXEjSF4-eD5e-1" value="&lt;h2&gt;Config template&lt;/h2&gt;" style="shape=hexagon;perimeter=hexagonPerimeter2;whiteSpace=wrap;html=1;fixedSize=1;fillColor=#e1d5e7;strokeColor=#9673a6;movable=1;resizable=1;rotatable=1;deletable=1;editable=1;locked=0;connectable=1;" parent="1" vertex="1">
          <mxGeometry x="70" y="90" width="120" height="80" as="geometry" />
        </mxCell>
        <mxCell id="KNKUc1UJHXEjSF4-eD5e-2" value="&lt;pre&gt;&lt;span style=&quot;font-style: normal;&quot;&gt;SAFEHR-data/PIXL&lt;/span&gt;&lt;/pre&gt;" style="text;html=1;align=center;verticalAlign=middle;resizable=1;points=[];autosize=1;strokeColor=none;fillColor=none;fontFamily=Courier New;fontStyle=2;movable=1;rotatable=1;deletable=1;editable=1;locked=0;connectable=1;" parent="1" vertex="1">
          <mxGeometry x="55" y="50" width="150" height="50" as="geometry" />
        </mxCell>
        <mxCell id="KNKUc1UJHXEjSF4-eD5e-53" style="edgeStyle=orthogonalEdgeStyle;rounded=0;orthogonalLoop=1;jettySize=auto;html=1;curved=1;dashed=1;dashPattern=12 12;endArrow=none;endFill=0;entryX=1;entryY=0;entryDx=0;entryDy=0;movable=1;resizable=1;rotatable=1;deletable=1;editable=1;locked=0;connectable=1;" parent="1" source="KNKUc1UJHXEjSF4-eD5e-3" target="KNKUc1UJHXEjSF4-eD5e-51" edge="1">
          <mxGeometry relative="1" as="geometry">
            <Array as="points">
              <mxPoint x="315" y="190" />
              <mxPoint x="260" y="190" />
              <mxPoint x="260" y="240" />
            </Array>
          </mxGeometry>
        </mxCell>
        <mxCell id="KNKUc1UJHXEjSF4-eD5e-3" value="&lt;pre style=&quot;font-size: 15px;&quot;&gt;my_project.toml&lt;/pre&gt;" style="rounded=1;whiteSpace=wrap;html=1;fontSize=15;fillColor=#dae8fc;strokeColor=#6c8ebf;movable=1;resizable=1;rotatable=1;deletable=1;editable=1;locked=0;connectable=1;" parent="1" vertex="1">
          <mxGeometry x="260" y="95" width="140" height="70" as="geometry" />
        </mxCell>
        <mxCell id="KNKUc1UJHXEjSF4-eD5e-5" value="&lt;pre&gt;SAFEHR-data/PIXL&lt;/pre&gt;" style="swimlane;whiteSpace=wrap;html=1;fillColor=#d5e8d4;strokeColor=#82b366;container=1;movable=1;resizable=1;rotatable=1;deletable=1;editable=1;locked=0;connectable=1;" parent="1" vertex="1">
          <mxGeometry x="610" y="40" width="200" height="150" as="geometry" />
        </mxCell>
        <mxCell id="KNKUc1UJHXEjSF4-eD5e-11" value="" style="group;movable=1;resizable=1;rotatable=1;deletable=1;editable=1;locked=0;connectable=1;" parent="1" vertex="1" connectable="0">
          <mxGeometry x="270" y="340" width="320" height="220" as="geometry" />
        </mxCell>
        <mxCell id="KNKUc1UJHXEjSF4-eD5e-10" value="&lt;pre&gt;$ pixl populate /resources/omop&lt;/pre&gt;" style="text;html=1;align=left;verticalAlign=middle;resizable=1;points=[];autosize=1;strokeColor=none;fillColor=none;movable=1;rotatable=1;deletable=1;editable=1;locked=0;connectable=1;" parent="KNKUc1UJHXEjSF4-eD5e-11" vertex="1">
          <mxGeometry x="70" width="250" height="50" as="geometry" />
        </mxCell>
        <mxCell id="KNKUc1UJHXEjSF4-eD5e-12" value="PIXL DB" style="shape=cylinder3;whiteSpace=wrap;html=1;boundedLbl=1;backgroundOutline=1;size=15;fontStyle=1;fillColor=#fff2cc;strokeColor=#d6b656;movable=1;resizable=1;rotatable=1;deletable=1;editable=1;locked=0;connectable=1;" parent="KNKUc1UJHXEjSF4-eD5e-11" vertex="1">
          <mxGeometry x="153.13" y="130" width="63.75" height="90" as="geometry" />
        </mxCell>
        <mxCell id="KNKUc1UJHXEjSF4-eD5e-13" value="Config" style="edgeStyle=orthogonalEdgeStyle;rounded=0;orthogonalLoop=1;jettySize=auto;html=1;movable=1;resizable=1;rotatable=1;deletable=1;editable=1;locked=0;connectable=1;" parent="KNKUc1UJHXEjSF4-eD5e-11" source="KNKUc1UJHXEjSF4-eD5e-10" target="KNKUc1UJHXEjSF4-eD5e-12" edge="1">
          <mxGeometry relative="1" as="geometry" />
        </mxCell>
        <mxCell id="KNKUc1UJHXEjSF4-eD5e-29" value="&lt;i style=&quot;font-size: 8px;&quot;&gt;&lt;font color=&quot;#ff9999&quot; style=&quot;font-size: 8px;&quot;&gt;project name&lt;/font&gt;&lt;br style=&quot;font-size: 8px;&quot;&gt;&lt;/i&gt;" style="text;html=1;align=center;verticalAlign=middle;resizable=1;points=[];autosize=1;strokeColor=none;fillColor=none;rotation=0;fontSize=8;movable=1;rotatable=1;deletable=1;editable=1;locked=0;connectable=1;" parent="KNKUc1UJHXEjSF4-eD5e-11" vertex="1">
          <mxGeometry x="235" y="60" width="70" height="20" as="geometry" />
        </mxCell>
        <mxCell id="KNKUc1UJHXEjSF4-eD5e-33" value="" style="curved=1;endArrow=classic;html=1;rounded=0;exitX=0.913;exitY=0.6;exitDx=0;exitDy=0;exitPerimeter=0;strokeWidth=1;dashed=1;fontColor=#FF9999;strokeColor=#FF9999;movable=1;resizable=1;rotatable=1;deletable=1;editable=1;locked=0;connectable=1;" parent="KNKUc1UJHXEjSF4-eD5e-11" source="KNKUc1UJHXEjSF4-eD5e-10" target="KNKUc1UJHXEjSF4-eD5e-29" edge="1">
          <mxGeometry width="50" height="50" relative="1" as="geometry">
            <mxPoint x="330" y="60" as="sourcePoint" />
            <mxPoint x="380" y="10" as="targetPoint" />
            <Array as="points">
              <mxPoint x="300" y="40" />
            </Array>
          </mxGeometry>
        </mxCell>
        <mxCell id="KNKUc1UJHXEjSF4-eD5e-31" value="" style="curved=1;endArrow=classic;html=1;rounded=0;dashed=1;fillColor=#f8cecc;strokeColor=#FF9999;movable=1;resizable=1;rotatable=1;deletable=1;editable=1;locked=0;connectable=1;" parent="1" source="KNKUc1UJHXEjSF4-eD5e-29" edge="1">
          <mxGeometry width="50" height="50" relative="1" as="geometry">
            <mxPoint x="480" y="510" as="sourcePoint" />
            <mxPoint x="480" y="430" as="targetPoint" />
            <Array as="points">
              <mxPoint x="530" y="430" />
            </Array>
          </mxGeometry>
        </mxCell>
        <mxCell id="KNKUc1UJHXEjSF4-eD5e-39" style="edgeStyle=orthogonalEdgeStyle;rounded=0;orthogonalLoop=1;jettySize=auto;html=1;shape=flexArrow;entryX=0.086;entryY=0.501;entryDx=0;entryDy=0;entryPerimeter=0;movable=1;resizable=1;rotatable=1;deletable=1;editable=1;locked=0;connectable=1;" parent="1" target="KNKUc1UJHXEjSF4-eD5e-40" edge="1">
          <mxGeometry relative="1" as="geometry">
            <mxPoint x="905.6199999999999" y="515.76" as="targetPoint" />
            <mxPoint x="850" y="514.24" as="sourcePoint" />
          </mxGeometry>
        </mxCell>
        <mxCell id="KNKUc1UJHXEjSF4-eD5e-48" style="edgeStyle=orthogonalEdgeStyle;rounded=0;orthogonalLoop=1;jettySize=auto;html=1;entryX=0;entryY=0.5;entryDx=0;entryDy=0;movable=1;resizable=1;rotatable=1;deletable=1;editable=1;locked=0;connectable=1;" parent="1" target="KNKUc1UJHXEjSF4-eD5e-47" edge="1">
          <mxGeometry relative="1" as="geometry">
            <mxPoint x="680" y="515" as="sourcePoint" />
          </mxGeometry>
        </mxCell>
        <mxCell id="_ttCTsgdB5R_nMDoaYhi-1" value="Calls" style="edgeLabel;html=1;align=center;verticalAlign=middle;resizable=0;points=[];" parent="KNKUc1UJHXEjSF4-eD5e-48" vertex="1" connectable="0">
          <mxGeometry x="-0.1276" y="1" relative="1" as="geometry">
            <mxPoint as="offset" />
          </mxGeometry>
        </mxCell>
        <mxCell id="KNKUc1UJHXEjSF4-eD5e-36" value=". . .&amp;nbsp;" style="text;html=1;align=right;verticalAlign=middle;resizable=1;points=[];autosize=1;strokeColor=none;fillColor=none;fontSize=64;horizontal=1;labelPosition=center;verticalLabelPosition=middle;movable=1;rotatable=1;deletable=1;editable=1;locked=0;connectable=1;" parent="1" vertex="1">
          <mxGeometry x="570" y="470" width="130" height="90" as="geometry" />
        </mxCell>
        <mxCell id="KNKUc1UJHXEjSF4-eD5e-35" style="edgeStyle=orthogonalEdgeStyle;rounded=0;orthogonalLoop=1;jettySize=auto;html=1;movable=1;resizable=1;rotatable=1;deletable=1;editable=1;locked=0;connectable=1;" parent="1" source="KNKUc1UJHXEjSF4-eD5e-12" target="KNKUc1UJHXEjSF4-eD5e-36" edge="1">
          <mxGeometry relative="1" as="geometry">
            <mxPoint x="560" y="515" as="targetPoint" />
          </mxGeometry>
        </mxCell>
        <mxCell id="KNKUc1UJHXEjSF4-eD5e-40" value="&lt;h1&gt;Destination&lt;/h1&gt;&lt;div&gt;&lt;ul&gt;&lt;li style=&quot;text-align: left;&quot;&gt;FTPS&lt;/li&gt;&lt;li style=&quot;text-align: left;&quot;&gt;&lt;i&gt;other options in future&lt;/i&gt;&lt;br&gt;&lt;/li&gt;&lt;/ul&gt;&lt;/div&gt;" style="ellipse;shape=cloud;whiteSpace=wrap;html=1;fillColor=#f8cecc;strokeColor=#b85450;movable=1;resizable=1;rotatable=1;deletable=1;editable=1;locked=0;connectable=1;" parent="1" vertex="1">
          <mxGeometry x="900" y="420" width="220" height="190" as="geometry" />
        </mxCell>
        <mxCell id="KNKUc1UJHXEjSF4-eD5e-46" value="" style="group;movable=1;resizable=1;rotatable=1;deletable=1;editable=1;locked=0;connectable=1;" parent="1" vertex="1" connectable="0">
          <mxGeometry x="770" y="220" width="320" height="130" as="geometry" />
        </mxCell>
        <mxCell id="KNKUc1UJHXEjSF4-eD5e-41" value="" style="sketch=0;outlineConnect=0;fontColor=#232F3E;gradientColor=none;fillColor=#00BEF2;strokeColor=none;dashed=0;verticalLabelPosition=bottom;verticalAlign=top;align=center;html=1;fontSize=12;fontStyle=0;aspect=fixed;pointerEvents=1;shape=mxgraph.azure.access_control;movable=1;resizable=1;rotatable=1;deletable=1;editable=1;locked=0;connectable=1;" parent="KNKUc1UJHXEjSF4-eD5e-46" vertex="1">
          <mxGeometry width="106.28571428571428" height="106.28571428571428" as="geometry" />
        </mxCell>
        <mxCell id="KNKUc1UJHXEjSF4-eD5e-42" value="&lt;h2&gt;&lt;font color=&quot;#ff9999&quot;&gt;Azure Key Vault&lt;/font&gt;&lt;/h2&gt;" style="swimlane;fontStyle=0;childLayout=stackLayout;horizontal=1;startSize=30;horizontalStack=0;resizeParent=1;resizeParentMax=0;resizeLast=0;collapsible=1;marginBottom=0;whiteSpace=wrap;html=1;strokeColor=#FF9999;movable=1;resizable=1;rotatable=1;deletable=1;editable=1;locked=0;connectable=1;" parent="KNKUc1UJHXEjSF4-eD5e-46" vertex="1">
          <mxGeometry x="115.14" y="10" width="204.86" height="120" as="geometry" />
        </mxCell>
        <mxCell id="KNKUc1UJHXEjSF4-eD5e-43" value="&lt;pre&gt;-&amp;nbsp;project--ftp--host&lt;/pre&gt;" style="text;strokeColor=none;fillColor=none;align=left;verticalAlign=middle;spacingLeft=4;spacingRight=4;overflow=hidden;points=[[0,0.5],[1,0.5]];portConstraint=eastwest;rotatable=1;whiteSpace=wrap;html=1;movable=1;resizable=1;deletable=1;editable=1;locked=0;connectable=1;" parent="KNKUc1UJHXEjSF4-eD5e-42" vertex="1">
          <mxGeometry y="30" width="204.86" height="30" as="geometry" />
        </mxCell>
        <mxCell id="KNKUc1UJHXEjSF4-eD5e-44" value="&lt;pre style=&quot;border-color: var(--border-color);&quot;&gt;-&amp;nbsp;project--ftp--username&lt;/pre&gt;" style="text;strokeColor=#FF9999;fillColor=none;align=left;verticalAlign=middle;spacingLeft=4;spacingRight=4;overflow=hidden;points=[[0,0.5],[1,0.5]];portConstraint=eastwest;rotatable=1;whiteSpace=wrap;html=1;movable=1;resizable=1;deletable=1;editable=1;locked=0;connectable=1;" parent="KNKUc1UJHXEjSF4-eD5e-42" vertex="1">
          <mxGeometry y="60" width="204.86" height="30" as="geometry" />
        </mxCell>
        <mxCell id="KNKUc1UJHXEjSF4-eD5e-45" value="&lt;pre style=&quot;border-color: var(--border-color);&quot;&gt;-&amp;nbsp;project--ftp--password&lt;/pre&gt;" style="text;strokeColor=none;fillColor=none;align=left;verticalAlign=middle;spacingLeft=4;spacingRight=4;overflow=hidden;points=[[0,0.5],[1,0.5]];portConstraint=eastwest;rotatable=1;whiteSpace=wrap;html=1;movable=1;resizable=1;deletable=1;editable=1;locked=0;connectable=1;" parent="KNKUc1UJHXEjSF4-eD5e-42" vertex="1">
          <mxGeometry y="90" width="204.86" height="30" as="geometry" />
        </mxCell>
        <mxCell id="KNKUc1UJHXEjSF4-eD5e-49" style="edgeStyle=orthogonalEdgeStyle;rounded=0;orthogonalLoop=1;jettySize=auto;html=1;movable=1;resizable=1;rotatable=1;deletable=1;editable=1;locked=0;connectable=1;" parent="1" source="KNKUc1UJHXEjSF4-eD5e-47" target="KNKUc1UJHXEjSF4-eD5e-41" edge="1">
          <mxGeometry relative="1" as="geometry" />
        </mxCell>
        <mxCell id="KNKUc1UJHXEjSF4-eD5e-47" value="&lt;h3&gt;Uploader API&lt;/h3&gt;" style="rhombus;whiteSpace=wrap;html=1;movable=1;resizable=1;rotatable=1;deletable=1;editable=1;locked=0;connectable=1;" parent="1" vertex="1">
          <mxGeometry x="730" y="457.5" width="120" height="115" as="geometry" />
        </mxCell>
        <mxCell id="KNKUc1UJHXEjSF4-eD5e-51" value="&lt;pre&gt;my_project.[toml|yaml|...]&lt;/pre&gt;" style="swimlane;whiteSpace=wrap;html=1;fillColor=#dae8fc;strokeColor=#6c8ebf;movable=1;resizable=1;rotatable=1;deletable=1;editable=1;locked=0;connectable=1;" parent="1" vertex="1">
          <mxGeometry x="-40" y="240" width="340" height="365" as="geometry" />
        </mxCell>
        <mxCell id="KNKUc1UJHXEjSF4-eD5e-52" value="&lt;pre&gt;– project: &quot;My Project&quot;&lt;/pre&gt;&lt;pre&gt;- modalities: [&quot;DX&quot;, &quot;CR&quot;] &lt;/pre&gt;&lt;pre&gt;– dicom-anon-tag-operations:&lt;/pre&gt;&lt;pre&gt;  – base profile&lt;/pre&gt;&lt;pre&gt;  – [extension profile] (optional)&lt;/pre&gt;&lt;pre&gt;&lt;br&gt;&lt;/pre&gt;&lt;pre&gt;– destination:&lt;/pre&gt;&lt;pre&gt;  – Dicom:&lt;/pre&gt;&lt;pre&gt;    – Type: &quot;None&quot; | &quot;FTPS&quot;&lt;/pre&gt;&lt;pre&gt;  - parquet:&lt;/pre&gt;&lt;pre&gt;&lt;pre style=&quot;border-color: var(--border-color);&quot;&gt;&lt;pre style=&quot;border-color: var(--border-color);&quot;&gt;    – Type: &quot;None&quot; | &quot;FTPS&quot;&lt;/pre&gt;&lt;pre&gt;&lt;br&gt;&lt;/pre&gt;&lt;/pre&gt;&lt;/pre&gt;" style="text;html=1;align=left;verticalAlign=top;resizable=1;points=[];autosize=1;strokeColor=none;fillColor=none;movable=1;rotatable=1;deletable=1;editable=1;locked=0;connectable=1;" parent="KNKUc1UJHXEjSF4-eD5e-51" vertex="1">
          <mxGeometry x="10" y="25" width="270" height="340" as="geometry" />
        </mxCell>
        <mxCell id="KNKUc1UJHXEjSF4-eD5e-63" style="edgeStyle=orthogonalEdgeStyle;rounded=0;orthogonalLoop=1;jettySize=auto;html=1;entryX=0.487;entryY=-0.021;entryDx=0;entryDy=0;entryPerimeter=0;" parent="1" source="KNKUc1UJHXEjSF4-eD5e-6" target="KNKUc1UJHXEjSF4-eD5e-10" edge="1">
          <mxGeometry relative="1" as="geometry">
            <Array as="points">
              <mxPoint x="710" y="270" />
              <mxPoint x="462" y="270" />
            </Array>
          </mxGeometry>
        </mxCell>
        <mxCell id="_ttCTsgdB5R_nMDoaYhi-2" style="edgeStyle=orthogonalEdgeStyle;rounded=0;orthogonalLoop=1;jettySize=auto;html=1;entryX=0;entryY=0;entryDx=0;entryDy=0;" parent="1" source="KNKUc1UJHXEjSF4-eD5e-6" target="KNKUc1UJHXEjSF4-eD5e-47" edge="1">
          <mxGeometry relative="1" as="geometry" />
        </mxCell>
        <mxCell id="_ttCTsgdB5R_nMDoaYhi-3" value="Get project&lt;br&gt;name" style="edgeLabel;html=1;align=center;verticalAlign=middle;resizable=0;points=[];" parent="_ttCTsgdB5R_nMDoaYhi-2" vertex="1" connectable="0">
          <mxGeometry x="0.3411" relative="1" as="geometry">
            <mxPoint as="offset" />
          </mxGeometry>
        </mxCell>
        <mxCell id="KNKUc1UJHXEjSF4-eD5e-6" value="&lt;pre&gt;PIXL&lt;br/&gt;├── docs&lt;br/&gt;├── projects&lt;br/&gt;│&amp;nbsp;&amp;nbsp; ├── my_project.toml&lt;br/&gt;│&amp;nbsp;&amp;nbsp; ├── project1.toml&lt;br/&gt;│&amp;nbsp;&amp;nbsp; └── project2.toml&lt;br/&gt;├── src&lt;br/&gt;└── test&lt;br/&gt;&lt;/pre&gt;&lt;div&gt;&lt;br&gt;&lt;/div&gt;" style="text;html=1;align=left;verticalAlign=middle;resizable=1;points=[];autosize=1;strokeColor=none;fillColor=none;movable=1;rotatable=1;deletable=1;editable=1;locked=0;connectable=1;" parent="1" vertex="1">
          <mxGeometry x="620" y="45" width="190" height="165" as="geometry" />
        </mxCell>
        <mxCell id="KNKUc1UJHXEjSF4-eD5e-56" value="Actor" style="shape=umlActor;verticalLabelPosition=bottom;verticalAlign=top;html=1;outlineConnect=0;fillStyle=solid;fillColor=#a20025;strokeColor=#6F0000;fontColor=#ffffff;movable=1;resizable=1;rotatable=1;deletable=1;editable=1;locked=0;connectable=1;" parent="1" vertex="1">
          <mxGeometry x="491" y="45" width="30" height="60" as="geometry" />
        </mxCell>
        <mxCell id="KNKUc1UJHXEjSF4-eD5e-58" value="" style="endArrow=classic;html=1;rounded=0;movable=1;resizable=1;rotatable=1;deletable=1;editable=1;locked=0;connectable=1;" parent="1" edge="1">
          <mxGeometry relative="1" as="geometry">
            <mxPoint x="400" y="129.52" as="sourcePoint" />
            <mxPoint x="610" y="130" as="targetPoint" />
          </mxGeometry>
        </mxCell>
        <mxCell id="KNKUc1UJHXEjSF4-eD5e-59" value="" style="shape=image;html=1;outlineConnect=0;verticalAlign=top;verticalLabelPosition=bottom;labelBackgroundColor=#ffffff;imageAspect=0;aspect=fixed;image=https://cdn0.iconfinder.com/data/icons/octicons/1024/git-pull-request-128.png;imageBackground=default;movable=1;resizable=1;rotatable=1;deletable=1;editable=1;locked=0;connectable=1;" parent="KNKUc1UJHXEjSF4-eD5e-58" vertex="1">
          <mxGeometry width="50" height="40" relative="1" as="geometry">
            <mxPoint x="-24" y="-20" as="offset" />
          </mxGeometry>
        </mxCell>
        <mxCell id="KNKUc1UJHXEjSF4-eD5e-61" value="&lt;b&gt;&amp;nbsp;IG Review&lt;/b&gt;" style="shape=tape;whiteSpace=wrap;html=1;strokeWidth=2;size=0.19;fillColor=#a20025;strokeColor=none;opacity=50;movable=1;resizable=1;rotatable=1;deletable=1;editable=1;locked=0;connectable=1;" parent="1" vertex="1">
          <mxGeometry x="469" y="150" width="74" height="50" as="geometry" />
        </mxCell>
      </root>
    </mxGraphModel>
  </diagram>
</mxfile>
